  <svg viewBox="0 0 100 100" fill="none" xmlns="http://www.w3.org/2000/svg">
    <rect
      x="5"
      y="5"
      width="90"
      height="90"
      fill="#D9D9D9"
      stroke="#333"
      stroke-width="10"
    />
    <rect x="2" y="6" width="45" height="92" fill="#E2D1BD" />
    <line x1="8" y1="90.5" x2="38" y2="90.5" stroke="#A89986" />
    <line x1="8" y1="85.5" x2="38" y2="85.5" stroke="#A89986" />
    <line x1="8" y1="80.5" x2="38" y2="80.5" stroke="#A89986" />
    <rect x="53" y="6" width="45" height="92" fill="#E2D1BD" />
    <line x1="62" y1="90.5" x2="92" y2="90.5" stroke="#A89986" />
    <line x1="62" y1="85.5" x2="92" y2="85.5" stroke="#A89986" />
    <line x1="62" y1="80.5" x2="92" y2="80.5" stroke="#A89986" />
    <rect x="47" y="9" width="6" height="82" fill="black" />
    <rect x="47" y="10" width="6" height="84" fill="#DACBB8" />
    <rect x="2" y="70" width="96" height="6" fill="black" />
    <rect y="95" width="100" height="5" fill="black" />
    <rect x="47" y="76" width="6" height="18" fill="#A89986" />
    <rect
      x="53.5"
      y="72.5"
      width="44"
      height="25"
      rx="1.5"
      fill="black"
      stroke="#E6E6E6"
    />
    <line
      x1="59"
      y1="82.25"
      x2="92"
      y2="82.25"
      stroke="#CDCDCD"
      stroke-width="1.5"
    />
    <line x1="59" y1="76.5" x2="92" y2="76.5" stroke="#CDCDCD" />
    <line
      x1="59"
      y1="79.25"
      x2="92"
      y2="79.25"
      stroke="#CDCDCD"
      stroke-width="1.5"
    />
    <line
      x1="59"
      y1="90.25"
      x2="92"
      y2="90.25"
      stroke="#CDCDCD"
      stroke-width="1.5"
    />
    <line x1="59" y1="93.5" x2="92" y2="93.5" stroke="#CDCDCD" />
    <line
      x1="59"
      y1="87.25"
      x2="92"
      y2="87.25"
      stroke="#CDCDCD"
      stroke-width="1.5"
    />
    <rect
      x="2.5"
      y="72.5"
      width="44"
      height="25"
      rx="1.5"
      fill="black"
      stroke="#E6E6E6"
    />
    <line
      x1="8"
      y1="82.25"
      x2="41"
      y2="82.25"
      stroke="#CDCDCD"
      stroke-width="1.5"
    />
    <line x1="8" y1="76.5" x2="41" y2="76.5" stroke="#CDCDCD" />
    <line
      x1="8"
      y1="79.25"
      x2="41"
      y2="79.25"
      stroke="#CDCDCD"
      stroke-width="1.5"
    />
    <line
      x1="8"
      y1="90.25"
      x2="41"
      y2="90.25"
      stroke="#CDCDCD"
      stroke-width="1.5"
    />
    <line x1="8" y1="93.5" x2="41" y2="93.5" stroke="#CDCDCD" />
    <line
      x1="8"
      y1="87.25"
      x2="41"
      y2="87.25"
      stroke="#CDCDCD"
      stroke-width="1.5"
    />
  </svg>
