  <svg viewBox="0 0 100 100" fill="none" xmlns="http://www.w3.org/2000/svg">
    <rect
      x="5"
      y="5"
      width="90"
      height="90"
      fill="#D9D9D9"
      stroke="#333"
      stroke-width="10"
    />
    <rect x="2" y="11" width="96" height="87" fill="#E2D1BD" />
    <rect x="2" y="2" width="96" height="12" fill="#E2D1BD" />
    <rect
      x="10.5"
      y="22.5"
      width="79"
      height="55"
      fill="#A89986"
      stroke="#948572"
    />
    <line x1="31" y1="39.5" x2="70" y2="39.5" stroke="#A89986" />
    <line
      x1="10.3146"
      y1="22.6114"
      x2="31.3146"
      y2="39.6114"
      stroke="#948572"
    />
    <line
      x1="10.6746"
      y1="77.6204"
      x2="31.6746"
      y2="59.6204"
      stroke="#948572"
    />
    <line
      x1="89.6655"
      y1="77.3716"
      x2="69.6655"
      y2="59.3716"
      stroke="#948572"
    />
    <line
      x1="89.3123"
      y1="23.3904"
      x2="69.3123"
      y2="39.3904"
      stroke="#948572"
    />
    <line x1="31" y1="59.5" x2="70" y2="59.5" stroke="#A89986" />
    <line x1="5" y1="94.5" x2="44" y2="94.5" stroke="#A89986" />
    <line x1="5" y1="90.5" x2="44" y2="90.5" stroke="#A89986" />
    <line x1="56" y1="94.5" x2="95" y2="94.5" stroke="#A89986" />
    <line x1="56" y1="90.5" x2="95" y2="90.5" stroke="#A89986" />
    <line x1="5" y1="10.5" x2="44" y2="10.5" stroke="#A89986" />
    <line x1="5" y1="6.5" x2="44" y2="6.5" stroke="#A89986" />
    <line x1="56" y1="10.5" x2="95" y2="10.5" stroke="#A89986" />
    <line x1="56" y1="6.5" x2="95" y2="6.5" stroke="#A89986" />
    <rect
      x="31.5"
      y="39.5"
      width="38"
      height="20"
      fill="#A89986"
      stroke="#948572"
    />
    <path d="M11 23L31.5 40V59.5L11 77V23Z" fill="#A39481" />
    <path
      d="M11.5 23H88.7954L69.0013 39H51.5013H31.2997L11.5 23Z"
      fill="#A39481"
    />
  </svg>
