  <svg viewBox="0 0 100 100" fill="none" xmlns="http://www.w3.org/2000/svg">
    <rect
      x="-5"
      y="5"
      width="90"
      height="90"
      transform="matrix(-1 0 0 1 90 0)"
      fill="#D9D9D9"
      stroke="#333"
      stroke-width="10"
    />
    <rect
      width="96"
      height="12"
      transform="matrix(-1 0 0 1 98 86)"
      fill="#E2D1BD"
    />
    <rect
      width="96"
      height="82"
      transform="matrix(-1 0 0 1 98 2)"
      fill="black"
    />
    <rect
      width="84"
      height="80"
      rx="4"
      transform="matrix(-1 0 0 1 98 2)"
      fill="#E2D1BD"
    />
    <rect
      x="-0.5"
      y="0.5"
      width="11"
      height="81"
      rx="3.5"
      transform="matrix(-1 0 0 1 12 1)"
      fill="#BCAD9A"
      stroke="#333"
    />
    <rect
      width="80"
      height="2"
      transform="matrix(-1 0 0 1 90 84)"
      fill="black"
    />
    <line
      y1="-0.5"
      x2="39"
      y2="-0.5"
      transform="matrix(-1 0 0 1 95 95)"
      stroke="#A89986"
    />
    <line
      y1="-0.5"
      x2="39"
      y2="-0.5"
      transform="matrix(-1 0 0 1 95 91)"
      stroke="#A89986"
    />
    <line
      y1="-0.5"
      x2="39"
      y2="-0.5"
      transform="matrix(-1 0 0 1 44 95)"
      stroke="#A89986"
    />
    <line
      y1="-0.5"
      x2="39"
      y2="-0.5"
      transform="matrix(-1 0 0 1 44 91)"
      stroke="#A89986"
    />
    <line
      y1="-0.5"
      x2="39"
      y2="-0.5"
      transform="matrix(-1 0 0 1 79 33)"
      stroke="#A89986"
    />
    <line
      y1="-0.5"
      x2="39"
      y2="-0.5"
      transform="matrix(-1 0 0 1 79 43)"
      stroke="#A89986"
    />
    <line
      y1="-0.5"
      x2="39"
      y2="-0.5"
      transform="matrix(-1 0 0 1 79 53)"
      stroke="#A89986"
    />
  </svg>
